<svg width="600" height="600" viewBox="0 0 600 600" fill="none" xmlns="http://www.w3.org/2000/svg">
  <rect width="600" height="600" rx="96" fill="#111111"/>
  <rect x="28" y="28" width="544" height="544" rx="72" stroke="#7DC7FF" stroke-opacity="0.28" stroke-width="8"/>
  <circle cx="300" cy="220" r="92" fill="#1D1D1D"/>
  <path d="M154 470C154 392.68 216.68 330 294 330H306C383.32 330 446 392.68 446 470V492H154V470Z" fill="#1D1D1D"/>
  <path d="M88 128C144 60 232 24 300 24C404 24 502 92 540 180" stroke="#7DC7FF" stroke-opacity="0.2" stroke-width="10" stroke-linecap="round"/>
  <path d="M74 454C132 534 222 576 300 576C408 576 502 522 548 428" stroke="#7DC7FF" stroke-opacity="0.12" stroke-width="10" stroke-linecap="round"/>
  <text x="300" y="310" text-anchor="middle" fill="#F5F7FB" font-family="Segoe UI, Arial, sans-serif" font-size="78" font-weight="700">JB</text>
  <text x="300" y="544" text-anchor="middle" fill="#7DC7FF" fill-opacity="0.88" font-family="Segoe UI, Arial, sans-serif" font-size="30" font-weight="600" letter-spacing="10">PROFILE</text>
</svg>
